<?xml version="1.0" encoding="utf-8"?>
<!-- Generated by IcoMoon.io -->
<!DOCTYPE svg PUBLIC "-//W3C//DTD SVG 1.1//EN" "http://www.w3.org/Graphics/SVG/1.1/DTD/svg11.dtd">
<svg version="1.1" xmlns="http://www.w3.org/2000/svg" xmlns:xlink="http://www.w3.org/1999/xlink" width="48" height="48" viewBox="0 0 48 48">
<path fill="#444444" d="M24 0c-13.255 0-24 10.745-24 24s10.745 24 24 24 24-10.745 24-24-10.745-24-24-24zM12 12h24c0.428 0 0.844 0.092 1.225 0.265l-13.225 15.43-13.226-15.43c0.382-0.173 0.797-0.265 1.226-0.265zM9 33v-18c0-0.063 0.003-0.125 0.007-0.188l8.797 10.263-8.7 8.7c-0.068-0.25-0.103-0.51-0.103-0.775zM36 36h-24c-0.265 0-0.525-0.036-0.775-0.103l8.537-8.537 4.239 4.945 4.239-4.945 8.537 8.537c-0.25 0.067-0.51 0.103-0.775 0.103zM39 33c0 0.265-0.036 0.525-0.103 0.775l-8.7-8.7 8.797-10.263c0.004 0.062 0.007 0.125 0.007 0.188v18z"></path>
</svg>
